<svg version="1" xmlns="http://www.w3.org/2000/svg" width="800" height="800" viewBox="0 0 600.000000 600.000000"><path d="M366.3 149.3c-25.2 6.5-43 32.4-48.7 70.9-.9 5.7-1.8 15.8-2.2 22.5l-.7 12.1-9.3 1.7c-5 .9-11.9 2.9-15.2 4.5l-6 2.8-1.1-8.5c-2.2-17.3-7.5-31.3-13.4-35.7-2.6-1.9-5.2-2.4-20.2-4.2-13-1.5-22.9 12.1-27.9 38.1-2.6 14.2-3.8 36.3-3.5 64.8l.4 27.6-3.1-3c-2.3-2.2-5.8-3.8-13.2-5.9-12.7-3.7-23-4.6-36.3-3.1-8.6 1-29.8 5.4-37.3 7.7-1.9.6-1.9-.2-1.3-32.7.4-18.4 1-44.9 1.3-58.9 1.3-51.9-4-78.1-17.6-85.8-5-2.9-21.5-4-25.7-1.9-12.4 6.5-19.6 30.3-24.8 82.7-4.5 46.1-3.1 93.1 4.1 130.2 4 20.8 5.9 24.4 14.3 27.4 2.5.9 6.6 2.6 9.1 3.7 6.9 3.3 24.7 3.5 41.3.7 24.1-4 53.7-13.3 67.6-21.2 9.2-5.2 18-12.7 21-17.9l2.8-4.9 1.5 7.3c2.5 11.5 5.6 18.5 10.2 23.3 3.5 3.6 4.9 4.4 7.9 4.4 2 0 5.1.9 6.9 2 3.9 2.3 10.4 2.6 15.1.6 4.2-1.7 9.4-7.7 12.2-14 5.8-13.2 8.3-29 9-58.1.3-11 .8-22.8 1.1-26.2.5-5.5.8-6.2 2.2-5.4 2.2 1.2 21.7 6.1 24.1 6.1 1.6 0 1.8 1.6 2.4 19.2.8 24.4 2.5 51.7 3.8 58.8 1.9 11.4 8.7 19.6 17 20.7 2.4.4 5.7 1.5 7.4 2.5 3.9 2.3 14.3 2.5 18.8.2 5.4-2.7 10.5-8.4 12.4-13.8 1.6-4.6 1.8-9.6 1.8-49.4v-44.3l2.5-.5c13.7-2.9 27-8.6 33-14 3.2-2.9 4.1-3.4 3.7-1.9-3 9.8-3.9 34.1-1.8 46.5 5.9 33.4 26 61.1 50.2 68.9 17.3 5.6 20.8 6.4 30.6 6.8 12.1.6 20.1-1.4 32.3-7.9 21.2-11.2 36.3-28.6 39.2-44.8.9-5.1.8-6.8-.7-10.6-2.3-6-7.7-9.6-14.8-10-2.9-.1-7-1-9.2-1.9-6.4-2.8-13.3-1.5-22.2 3.9-4 2.5-10.6 6.6-14.5 9.1-4 2.4-9.2 4.9-11.6 5.4-4 .8-4.6.7-7.3-1.7-1.7-1.5-3.6-4.5-4.4-6.7l-1.3-4 9.6-1.6c10.8-1.9 15.1-3.3 23.8-7.7 20.4-10.6 34.9-27.5 40.3-47.2 2.9-10.3 2.9-24.8 0-33.2-5.3-15.8-19.6-29.3-35.9-33.8-10.9-3.1-36.1-4.8-44.3-3-8.5 1.7-19 7.4-26.2 14.2l-6.4 5.9 1.2-3.8c.6-2.1 1.1-8.5 1.1-14.3 0-31-14.4-53.6-37-58.5-9.9-2.2-31.6-2.8-38.1-1.2zm18.1 64.7c.8 12.4 1.9 15.9 6 19.9 2.7 2.6 4.5 3.4 8.3 3.8 2.6.2 7.2 1.1 10.2 2 6.1 1.8 14.2 1.3 18.9-1.1l3.1-1.6-4.2 7.7c-2.3 4.3-5.6 11.5-7.3 16.1-2.8 7.5-3.2 8.1-3.7 5.4-.9-4.3-5-8.7-10.5-11-4.7-2-9.1-3-25.2-5.5l-7.5-1.2.7-8.6c.9-13 5.3-32 8.4-37 1.3-2.1 2.1 1.4 2.8 11.1zm111.9 45c2 7.8-3 15.8-12.8 20.5-3 1.4-5.6 2.5-5.9 2.5-.9 0 1.6-7.5 4.5-13.6 2.9-6.2 10-13.9 12.2-13.1.6.2 1.5 1.9 2 3.7z"/><path d="M243.3 163.9c-10.2 3.5-15.3 9.6-15.3 18.4 0 4.7 2.3 8.7 6.3 10.9 2.6 1.3 15.1 3.1 22.7 3.1 12.5.1 25-9.8 25-19.8 0-8.7-5-12.2-19.3-13.6-12.4-1.2-13.4-1.1-19.4 1z"/></svg>