<?xml version="1.0" standalone="no"?>
<!DOCTYPE svg PUBLIC "-//W3C//DTD SVG 20010904//EN"
 "http://www.w3.org/TR/2001/REC-SVG-20010904/DTD/svg10.dtd">
<svg version="1.0" xmlns="http://www.w3.org/2000/svg"
 width="600.000000pt" height="600.000000pt" viewBox="0 0 600.000000 600.000000"
 preserveAspectRatio="xMidYMid meet">
<metadata>
Created by potrace 1.11, written by Peter Selinger 2001-2013
</metadata>
<g transform="translate(0.000000,600.000000) scale(0.100000,-0.100000)"
fill="#000000" stroke="none">
<path d="M3663 4507 c-301 -78 -481 -407 -509 -935 l-7 -119 -102 -20 c-56
-11 -124 -32 -152 -46 l-51 -25 -7 66 c-10 99 -50 245 -82 304 -46 85 -59 91
-258 114 -131 15 -229 -120 -279 -385 -27 -140 -38 -357 -35 -645 l4 -275 -31
30 c-23 22 -58 38 -132 59 -127 37 -230 46 -363 31 -86 -10 -298 -54 -373 -77
-19 -6 -19 2 -10 382 13 560 12 910 -4 1029 -26 190 -86 326 -161 364 -24 13
-70 21 -136 26 -94 6 -102 6 -135 -17 -104 -71 -166 -253 -214 -635 -69 -545
-62 -1059 20 -1485 40 -208 59 -244 143 -274 25 -9 66 -26 91 -37 63 -30 239
-35 384 -12 327 51 651 165 808 284 60 46 117 112 130 150 2 8 12 -24 22 -70
34 -161 107 -269 181 -269 19 0 49 -9 67 -20 66 -40 159 -21 216 44 95 109
139 308 148 676 3 107 7 223 10 257 5 55 8 62 22 54 22 -12 217 -61 241 -61
16 0 18 -17 25 -212 10 -304 32 -574 52 -632 23 -67 87 -132 139 -141 22 -3
59 -15 83 -26 97 -44 231 -12 286 70 50 75 51 85 51 559 l0 443 25 5 c136 29
270 86 329 139 l42 38 -6 -29 c-4 -16 -9 -36 -11 -44 -2 -8 -8 -64 -14 -123
-23 -228 31 -468 148 -665 87 -146 245 -280 374 -316 35 -10 92 -27 128 -38
39 -13 105 -23 167 -25 86 -4 114 -2 175 17 265 80 502 304 540 510 10 50 9
65 -6 105 -24 61 -77 97 -149 101 -29 1 -70 10 -92 19 -66 29 -131 17 -222
-40 -210 -130 -226 -138 -272 -143 -39 -3 -49 0 -69 21 -13 14 -30 42 -37 64
l-13 38 96 16 c106 19 150 33 233 74 210 106 360 285 414 490 22 88 20 241 -6
317 -57 171 -219 313 -394 345 -269 50 -405 44 -538 -23 -60 -31 -85 -49 -148
-109 l-45 -43 14 66 c16 77 11 194 -14 306 -47 210 -186 362 -364 396 -92 18
-308 22 -367 7z m181 -647 c8 -124 19 -159 60 -199 29 -28 45 -35 88 -38 29
-3 72 -12 96 -20 49 -18 144 -13 190 10 l30 14 -41 -76 c-23 -42 -56 -113 -73
-159 -28 -75 -32 -81 -37 -54 -14 69 -94 121 -218 142 -35 6 -82 15 -104 20
-22 5 -55 10 -72 10 -33 0 -33 0 -33 49 0 106 37 296 75 386 23 52 31 35 39
-85z m1119 -450 c22 -87 -34 -165 -157 -218 l-29 -13 6 35 c13 83 123 246 158
234 7 -2 17 -20 22 -38z"/>
<path d="M2433 4361 c-102 -35 -153 -96 -153 -184 0 -47 23 -87 63 -109 27
-14 152 -31 232 -31 122 -1 245 99 245 198 0 87 -50 122 -193 136 -124 12
-134 11 -194 -10z"/>
</g>
</svg>
